# xmcd
#
# Track frame offsets:
# 150
# 17647
# 38015
# 62387
# 82080
# 102192
# 121942
# 137585
# 157110
# 170705
# 192510
# 214202
# 232442
# 252262
# 271180
# 292287
#
# Disc length: 4051 seconds
#
#
# Revision: 0
# Processed by: cddbd v1.5.2PL0 Copyright (c) Steve Scherf et al.
# Submitted via: FreeRIP 2.942 
#
DISCID=f10fd110
DTITLE=王菲 - 王菲絕響系列之菲賣品
DYEAR=1997
DGENRE=Pop
TTITLE0=不得了
TTITLE1=我願意
TTITLE2=執迷不悔
TTITLE3=天空
TTITLE4=天使
TTITLE5=你在我心中
TTITLE6=雪中蓮
TTITLE7=但願人長久
TTITLE8=浮躁
TTITLE9=棋子
TTITLE10=不變
TTITLE11=流星
TTITLE12=誓言
TTITLE13=冷戰
TTITLE14=矜持
TTITLE15=無常
EXTD=
EXTT0=
EXTT1=
EXTT2=
EXTT3=
EXTT4=
EXTT5=
EXTT6=
EXTT7=
EXTT8=
EXTT9=
EXTT10=
EXTT11=
EXTT12=
EXTT13=
EXTT14=
EXTT15=
PLAYORDER=
